<svg xmlns="http://www.w3.org/2000/svg" width="200" viewBox="0 0 241.45 162.02">
  <g>
    <circle fill="#a39395" cx="181.9" cy="27.91" r="16.64"/>
    <circle fill="#d5cece" cx="217.86" cy="67.05" r="19.44"/>
    <circle fill="#a39395" cx="60.69" cy="27.91" r="16.64"/>
    <circle fill="#d5cece" cx="24.32" cy="67.05" r="19.44"/>
    <circle fill="#d5cece" cx="120.88" cy="15.73" r="15.73"/>
    <path fill="#d5cece" d="M100.82 54.78V42.17c0-2.15.78-4.27 4.66-5.76 3.44-1.32 9.66-2.14 14.92-2.14 5.71 0 12.29.82 15.85 2.14 4 1.49 4.66 3.62 4.66 5.76v12.61c0 4.05-40.1 4.05-40.1 0Z"/>
    <path fill="#a39395" d="M205.28 162.02H36.48c-4.74 0-7.67-5.15-5.26-9.23l52.44-88.5c1.1-1.86 3.1-3 5.26-3h63.91a6.11 6.11 0 0 1 5.26 3l52.44 88.5c2.41 4.07-.52 9.23-5.26 9.23Z" class="cls-1"/>
    <path fill="#d5cece" d="M235.87 91.92c-4.27-1.59-12.13-2.57-18.97-2.57-6.29 0-13.74.98-17.85 2.57-4.65 1.79-5.58 4.32-5.58 6.89v6.41c0 1.34.35 2.66 1.02 3.83 0 0 23.23 40.35 28.16 48.94a2.07 2.07 0 0 0 2.66.86c5.85-2.71 11.26-7.67 14.93-16.05.53-1.2.8-2.5.81-3.81l.4-40.17c0-2.56-.79-5.11-5.58-6.89Zm-230.29-.4c4.27-1.59 12.13-2.57 18.97-2.57 6.29 0 13.74.98 17.85 2.57 4.65 1.79 5.58 4.32 5.58 6.89v6.41c0 1.34-.35 2.66-1.02 3.83 0 0-23.22 40.32-28.16 48.93-.54.93-1.69 1.31-2.67.86-5.85-2.71-11.25-7.67-14.92-16.05-.53-1.2-.8-2.5-.81-3.81L0 98.41c0-2.56.79-5.11 5.58-6.89Z" class="cls-2"/>
    <path fill="#a39395" d="M189.58 65.49c0-5.89 6.89-10.09 5.77-15.54-.09-.46-.9-.41-1.45-.6-3.24-1.09-9.2-1.76-14.38-1.76-4.77 0-10.41.68-13.53 1.76-3.52 1.23-4.23 2.97-4.23 4.73v4.4c0 .92.26 1.81.75 2.58l21.76 34.21c.1.16.2.34.3.52 4.23-1.47 8.24-4.25 11.23-8.99 1.14-1.81.98-4.13-.41-5.75-3.63-4.24-5.81-9.67-5.81-15.58Zm-138.64 0c0-5.89-6.89-10.09-5.77-15.54.09-.46.9-.41 1.45-.6 3.24-1.09 9.2-1.76 14.38-1.76 4.77 0 10.41.68 13.53 1.76 3.52 1.23 4.23 2.97 4.23 4.73v4.41c0 .91-.26 1.81-.75 2.58L56.25 95.28c-.1.16-.2.34-.3.52-4.23-1.47-8.25-4.25-11.23-8.99-1.13-1.8-.98-4.12.41-5.74 3.63-4.24 5.81-9.67 5.81-15.58Z" class="cls-1"/>
  </g>
</svg>