<svg width="200" xmlns="http://www.w3.org/2000/svg" xml:space="preserve" y="0" version="1.1" viewBox="0 0 200 231">
  <path fill="#a39395" d="M100 158.7H13.7c-3.9 0-7-3.1-7-7V58.4c0-3.9 3.1-7 7-7H126c3.9 0 7 3.1 7 7v17.1c0 .9.7 1.7 1.7 1.7h3.4c.9 0 1.7-.7 1.7-1.7V58.4c0-7.6-6.2-13.7-13.7-13.7H13.7C6.2 44.7 0 50.9 0 58.4v93.3c0 7.6 6.2 13.7 13.7 13.7H100c1 0 1.9-.9 1.9-1.9v-2.9c0-1-.8-1.9-1.9-1.9z"/>
  <path fill="#a39395" d="M100.7 132.4H2.6c-.7 0-1.2.6-1.2 1.2v3.6c0 .7.6 1.2 1.2 1.2h98.1c.7 0 1.2-.6 1.2-1.2v-3.6c0-.7-.5-1.2-1.2-1.2zM94.1 179H82.8v-16H57v16H45.7c-.9 0-1.5.7-1.5 1.5v3.7c0 .9.7 1.5 1.5 1.5h48.4c.9 0 1.5-.7 1.5-1.5v-3.7c0-.9-.6-1.5-1.5-1.5z"/>
  <circle cx="69.9" cy="149.1" r="3.5" fill="#a39395"/>
  <path fill="#a39395" d="M153.3 172.8h-36.5c-.7 0-1.3-.6-1.3-1.3v-77c0-.7.6-1.3 1.3-1.3H171c.7 0 1.3.6 1.3 1.3v19.4c0 .7.6 1.3 1.3 1.3h4c.7 0 1.3-.6 1.3-1.3V90.3c0-3.5-2.9-6.4-6.4-6.4H115c-3.5 0-6.4 2.9-6.4 6.4V180c0 3.5 2.9 6.4 6.4 6.4h38.3c.7 0 1.3-.6 1.3-1.3v-10.8c0-.9-.6-1.5-1.3-1.5z"/>
  <circle cx="143.9" cy="179.4" r="3.5" fill="#fff"/>
  <path fill="#a39395" d="M193.9 128.1v44.8h-26.4v-44.8h26.4m3.2-6.2h-32.7c-1.6 0-2.9 1.3-2.9 2.9v58.5c0 1.6 1.3 2.9 2.9 2.9h32.7c1.6 0 2.9-1.3 2.9-2.9v-58.5c0-1.5-1.3-2.9-2.9-2.9z"/>
  <circle cx="180.7" cy="179.9" r="3.5" fill="#fff"/>
</svg>