<?xml version="1.0" encoding="UTF-8"?><svg id="a" xmlns="http://www.w3.org/2000/svg" viewBox="0 0 1004 424.72"><text transform="translate(188.08 297.75)" fill="#bf0029" font-family="Georgia, Georgia" font-size="48" letter-spacing=".02em"><tspan x="0" y="0">UX / UI Strategy and Design</tspan></text><path d="M327.84,222.75c0,13.8,1.12,18.61,18.13,18.61h.96v.96h-71.56v-.96h.96c12.35,0,14.76-4.33,14.76-18.61v-88.08l-28.56,107.66h-19.57l-32.25-108.78v78.62c0,20.86,3.05,29.2,18.45,29.2h1.76v.96h-41.88v-.96h1.6c15.4,0,18.77-8.34,18.77-29.2v-75.89c0-13.8-.8-18.61-17.81-18.61h-1.28v-.96h55.67l25.03,88.89,23.75-88.89h52.14v.96h-.96c-17.01,0-18.13,4.81-18.13,18.61v86.48Zm107.98,9.31c0,2.57,0,7.06,2.57,7.06,2.25,0,7.7-4.65,8.18-21.66h1.12c0,3.85-.96,19.09-8.34,22.94-3.69,2.09-8.5,3.05-13,3.05-3.21,0-6.1-.48-8.5-1.44-8.98-3.53-11.71-7.22-14.28-16.69-3.37,10.59-8.18,14.92-12.68,16.69-2.41,.96-5.29,1.12-8.82,1.12-13.64,0-27.6-3.85-27.6-21.34,0-2.57,.48-5.13,1.12-7.38,3.53-11.39,10.75-12.51,21.82-14.44l3.85-.64c21.34-3.53,22.3-14.6,22.3-24.07,0-15.56-5.46-16.85-11.55-16.85-3.37,0-13.32,.48-16.53,8.34,.96-.48,2.25-.64,3.53-.64,5.78,0,13.48,4.33,13.48,13.32,0,9.63-8.34,15.72-16.2,15.72s-15.56-6.26-15.56-16.04c0-13.32,16.69-22.14,36.74-22.14,9.79,0,20.22,2.09,27.28,7.06,10.59,7.38,11.07,17.01,11.07,26.15v41.88Zm-49.58-21.02c-.48,3.21-.64,5.94-.64,8.5,0,3.69,.32,7.06,.64,10.91,.16,3.21,.48,9.31,4.49,9.31,1.12,0,2.41-.32,3.21-1.12,9.15-5.94,9.47-20.22,9.47-32.41v-20.7c-.64,3.85-3.21,6.58-4.81,7.7-10.43,7.7-11.23,8.82-12.35,17.81Zm124.66,31.29h-59.53v-.96c12.51,0,13.64-3.85,13.64-15.72v-89.85c0-11.87-1.12-15.4-13.64-15.4v-.96h46.05v105.89c0,11.87,.96,16.04,13.48,16.04v.96Zm39.31-43v9.79c0,20.38,3.69,32.57,18.45,32.57,17.17,0,26.95-18.29,28.72-34.5h1.12c-.96,8.34-4.33,24.23-17.65,32.25-4.49,2.73-11.23,3.85-18.13,3.85-35.94,0-44.92-25.03-44.92-40.91,0-11.55,4.33-23.75,15.56-34.66,8.02-7.7,18.61-10.75,28.08-10.75,20.86,0,30,12.19,34.66,24.23,2.09,5.78,2.25,11.23,2.25,18.13h-48.13Zm0-5.78v4.65h18.77c.32-6.26,.48-14.6,.48-20.54,0-8.5-.16-14.92-4.81-18.93-.64-.64-1.93-.8-3.53-.8-9.15,0-10.91,11.07-10.91,35.62Zm55.19-35.62h45.89v14.28c4.01-10.27,13.48-15.24,25.03-15.24,6.74,0,12.35,1.77,16.69,5.13,7.86,6.26,9.15,13.96,9.15,24.23v39.31c0,11.87,1.12,15.72,13.64,15.72v.96h-52.79v-.96c6.58,0,7.06-5.46,7.06-15.72v-42.84c0-16.2-3.05-19.25-7.7-19.25-.96,0-5.78,.48-8.34,5.62-1.77,3.53-2.73,6.1-2.73,19.09v37.38c0,10.27,.48,15.72,7.06,15.72v.96h-52.95v-.96c12.51,0,13.64-3.85,13.64-15.72v-50.86c0-11.87-1.12-15.72-13.64-15.72v-1.12Zm197.67,74.13c0,2.57,0,7.06,2.57,7.06,2.25,0,7.7-4.65,8.18-21.66h1.12c0,3.85-.96,19.09-8.34,22.94-3.69,2.09-8.5,3.05-13,3.05-3.21,0-6.1-.48-8.5-1.44-8.98-3.53-11.71-7.22-14.28-16.69-3.37,10.59-8.18,14.92-12.68,16.69-2.41,.96-5.29,1.12-8.82,1.12-13.64,0-27.6-3.85-27.6-21.34,0-2.57,.48-5.13,1.12-7.38,3.53-11.39,10.75-12.51,21.82-14.44l3.85-.64c21.34-3.53,22.3-14.6,22.3-24.07,0-15.56-5.46-16.85-11.55-16.85-3.37,0-13.32,.48-16.53,8.34,.96-.48,2.25-.64,3.53-.64,5.78,0,13.48,4.33,13.48,13.32,0,9.63-8.34,15.72-16.2,15.72s-15.56-6.26-15.56-16.04c0-13.32,16.69-22.14,36.74-22.14,9.79,0,20.22,2.09,27.28,7.06,10.59,7.38,11.07,17.01,11.07,26.15v41.88Zm-49.58-21.02c-.48,3.21-.64,5.94-.64,8.5,0,3.69,.32,7.06,.64,10.91,.16,3.21,.48,9.31,4.49,9.31,1.12,0,2.41-.32,3.21-1.12,9.15-5.94,9.47-20.22,9.47-32.41v-20.7c-.64,3.85-3.21,6.58-4.81,7.7-10.43,7.7-11.23,8.82-12.35,17.81Z" fill="#bf0029"/></svg>