<svg id="Layer_2" data-name="Layer 2" xmlns="http://www.w3.org/2000/svg" viewBox="0 0 1456.59 3005.25">
  <defs>
    <style>
      .cls-1 {
        fill: #583e40;
      }

      .cls-2 {
        fill: none;
        opacity: .03;
      }
    </style>
  </defs>
    <g class="cls-2">
      <path class="cls-1" d="m535.15,562.56c-2.12,15.73-3.2,31.54-3.28,47.14-.93,182.4,104.01,346.32,205.14,498.13-7.13-10.7,9.69-56.83,13.18-68.68,6.67-22.64,16.02-44.08,25.94-65.44.93-2.01,1.74-4.12,1.93-6.34.19-2.22-.48-3.54-2.64-4.55-35.35-16.55-66.63-29.61-80.68-69.92-10.9-31.28-5.45-67.76,14.11-94.49,1.84-2.52,3.8-4.95,5.75-7.38,2.76,11.95,11.13,30.95,23.79,33.11.36-5.74-1.08-11.13-2.27-17-.07-.32-.11-.64-.12-.97-1.05-46.78,4.25-89.22,37.91-125.04-10.02,10.66,9.53,43.82,16.87,51.09,1.81-6.8,4.32-15.3,8.15-22.26,17.66-32.09,39.46-62.56,68.45-84.95,25.01-19.32,73.6-44.06,105.54-30.33-17.19,25.15-41.91,40.51-45.28,73.55-1.99,19.55,2.45,45.81,15.95,61.1,11.62,13.16,23.15,4.44,29.85-8.08,1.31-2.45,10.12-36.1,11.66-33.47,30.73,52.25,19.54,134.48-5.27,186.61,3.37,2.03,7.57-.48,10.67-2.9,12.4-9.66,25.81-23.54,40.05-29.45,29.69,52.01-8.19,130.93-53.96,159.95-52.05,32.99-126.76,24.1-169.61-20.18-26.2-27.08-39.03,38.68-43.81,58.54-7.66,31.86-9.88,65.05-6.28,97.64,3.32,30.06,11.45,59.56,12.7,89.78,1.16,27.98-3.6,55.83-8.34,83.43,31.43-37.55,83.16-51.75,132.08-53.85,48.92-2.1,97.91,5.78,146.79,2.94,16.62-.97,34.2-3.6,46.93-14.33,19.41-16.36,21.57-46.06,38.37-65.08,30.47-34.49,94.35-20.22,123.23-56.05,4.34,15.37,6.76,31.28,7.18,47.25,17.09-10.47,34.18-20.94,51.28-31.41,9.12,8.89,3.36,28.16,14.73,33.9,3.68,1.86,8.06,1.47,12.15.93,22.35-2.94,44.28-9.01,64.97-17.98-5.8,16.18-9.55,33.1-11.11,50.23,18.37.44,36.84-5.31,51.72-16.1,10.92,21.14-17.23,48.93-4.14,68.8,6.61,10.04,22.7,15.65,21.01,27.55-.5,3.55-2.7,6.62-4.97,9.39-8.76,10.66-19.89,19.36-32.35,25.29,6.53,18.13,6.98,38.39,1.25,56.79-10.04-12.71-23.91-22.34-39.33-27.32-2.91,13.82-5.82,27.64-8.72,41.45-13.71-12.37-28.99-23-45.35-31.56-2.13,17.87-8.27,35.26-17.84,50.51-16.81-15.8-37.37-27.58-59.51-34.07,1.33,17.8-1.37,35.88-7.83,52.52-18.95-36.79-72.16-37.43-103.51-64.46-28.89-24.91-37.85-71.27-72.98-86.13-15.26-6.45-32.48-5.35-49.04-5-45.08.97-90.35-4.36-135.16.65-35.83,4-70.76,16.54-98.76,39.67-33.67,27.82-39.38,62.4-56.38,100.65-33.79,76.05-84.84,147.11-95.83,231.45-1.79,13.74-2.45,27.59-3.11,41.43-2.04,43.05-4.01,86.18-6.74,129.19-2.59,40.86-14.18,82.47-22.22,122.87,42.04-26.57,86.3-53.9,135.88-57.73,30.22-2.34,60.43,4.25,89.16,13.05,27.77,8.51,47.53,5.42,76.09,2.42,39.1-4.11,78.76,11.76,108.09,37.95,29.33,26.19,49.01,61.87,61.06,99.29,16.02,49.78,19.22,103.63,9.19,154.95-7.68-11.63-18.22-21.36-30.43-28.08,16.98,50-9.37,110.77-57.47,132.55,13.32-26.4,8.57-60.83-11.4-82.64-11.88,63.13-56.54,119.16-115.44,144.81,7.11-26.73-.33-56.87-19.07-77.22-24.93,33.39-65.31,53.56-106.72,58.16-41.42,4.59-83.63-5.46-120.97-23.94,27.87-9.04,51.19-31.16,61.7-58.52,3.92-10.22,5.7-22.94-1.52-31.16-5.98-6.81-16.47-8.06-25.14-5.43s-15.98,8.42-23.05,14.09c-12.04-29.63-6.83-65.59,13.12-90.59s53.87-38.04,85.43-32.86c-27.81-11.69-61.07-4.19-85.53,13.46,3.61-24.05,14.85-46.89,31.7-64.43,7.48,2.55,16.56-1.01,20.3-7.98.12-.23-49.44,4.71-55.11,6.83-15.72,5.86-30.3,14.94-42.3,26.67-7.2-55.75,19.88-113.49,64.74-147.36,44.86-33.87,105.3-44.42,160.21-32.39-82.32-30.8-183.83,2.3-232.17,75.7-17.21,26.13-27.89,55.93-37.97,85.55-50.89,149.42-68.78,311.56,19.62,451.45,4.31,6.82,8.89,13.59,14.91,18.95,8.57,7.63,19.5,11.94,29.91,16.79,91.24,42.53,172.45,128.38,233.17,206.8,21.69,28.01,41.97,57.67,69.15,80.39,43.13,36.07,99.42,51.39,153.78,65.74,55.62,14.68,111.31,29.38,167.93,39.59,35.29,6.36,84.58,16.53,91.3,59.1-9.44-11.33-23.51-17.57-37.21-23.04-68.29-27.28-139.55-43.51-210.91-60.32-64.23-15.13-129.98-34.25-180.45-78.92-24.7-21.87-44.48-48.62-65.31-74.2-53.8-66.07-116.34-124.21-182.34-177.87-6.06-4.93-13.22-10.12-20.92-8.78,6.84-1.19,25.29,40.88,27.67,46.65,7.83,19.01,12.61,39.31,14.04,59.82,2.5,35.94-4.44,79.86-32.3,105.31-22.86,20.88-53.29,21.75-81.53,13.33-61.03-18.19-110.55-75.05-113.28-138.67-2.73-63.62,46.74-127.29,110.06-134.07-15.97,1.71-47.72-124.14-50.87-138.9-10.6-49.63-14.14-100.78-10.36-151.39,8.07-107.87,53.27-206.87,84.04-309.26,28.11-93.53,27.06-183.92,29.55-280.58.51-19.71,1.04-39.64,6.1-58.7,4.36-16.43,11.96-31.79,19.51-47.03,14.1-28.42,13.39-49.23-1.41-78.81-16.35-31.77-47.54-60.15-82.47-69.22-31.97-8.3-69.88,1.84-88.03,29.44,46.97-12.54,100.72,6.4,129.45,45.62,28.73,39.21,30.6,96.17,4.49,137.18,1.54-16.72-8.08-33.91-23.13-41.34,12.54,27.43,3.7,62.98-20.24,81.34-2.98-10.13-9.03-19.33-17.15-26.08.55,23.22-10.57,46.43-29.01,60.57-18.44,14.13-43.74,18.84-66.02,12.28,9.28-18.34,8.44-41.41-2.14-59.03-4.72,22.09-13.11,43.39-24.72,62.77-14.21,14.01-30.34,26.07-47.8,35.74,5.78-22.33.93-47.18-12.83-65.69-21.86,15.49-43.41,117.28-53.92,141.93,1.91-7.16-16-94,63-162,0,0-1.08,38.98,24,61,2.11-17.08,53-39,29.68-114.41,35.22,12.7,54.5,57.85,39.33,92.07,22.13.96,44.28-11.9,54.42-31.6,10.14-19.7,7.72-45.2-5.93-62.65,21.37-3.3,39.52,14.64,53.66,31,12.67-11.64,7.87-33.28-2.81-46.77-10.68-13.49-25.93-23.12-35.13-37.66,28.63-8.57,62.23,3.94,78.29,29.15,9.23-30.4,2.81-65.11-16.67-90.21s-51.52-39.91-83.26-38.51c-45.58,2.02-83.99,34.52-113.1,69.66-25.74,31.07-47.35,65.56-64.09,102.27,8.22-62.5,51.61-114.7,99.17-156.07,4.03-3.51,8.38-7.45,9.13-12.74.46-3.24-.54-6.5-1.67-9.58-14.26-38.73-54.16-66.51-95.43-66.43-51.19.09-94.89,38.7-121.8,82.25,18.79-7.24,39.68-8.91,59.38-4.72-20.7,15.21-41.6,30.6-58.36,50.07-16.75,19.48-29.24,43.69-30,69.37,18.09-13.4,45.67-11.86,62.15,3.48-33.55,21.55-53.52,62.57-49.79,102.26,8.41-9.8,16.81-19.6,25.22-29.39,2.1-2.44,4.56-5.08,7.77-5.25,7.72-.41,8.32,11.17,6.54,18.69-12.23,51.68,31.08,117.19,66.31,156.71-48.06-25.46-88.19-79.67-89.14-134.05-5.38,8.52-12.77,15.77-21.4,20.98-14.9-41.35-7.39-90.03,19.27-124.96-17.37-6.08-27.64,24.16-45.98,25.64,6.03-8.05,5.51-19.03,5.75-29.09.93-39,17.97-77.38,46.28-104.23-6.56-1.04-13.11-2.08-19.67-3.12,17.54-52.04,61.22-96.54,115.1-107.15,53.88-10.61,115.17,18.1,134.8,69.39,18.52-25.96,42.58-43.41,75.76-43.91,30.57-.46,60.11,13.07,83.86,32.33,30.33,24.59,38.88,50.85,49.2,86.48.81,2.79,2.8,4.56,5.21,1.67,33.65-40.28,55.51-104.28,68.97-154.49,19.54-72.9,23.82-140.49-2.42-212.18-23.7-64.75-66.01-122.9-121.59-163.91-24.38-17.99-51.74-33.05-81.63-38.04-40.23-6.72-111.25,12.49-99.45,67.15,29.94-17.54,69.68-8.81,97.51,11.91,27.84,20.73,46.4,51.26,64.27,81.01-14.89,3.33-29.77,6.66-44.66,9.99,14.25,13.04,28.51,26.08,42.76,39.12-18.84-.58-32.34,20.82-30.44,39.57,1.89,18.75,14.31,34.59,26.8,48.7-17.7.61-35.4,1.21-53.1,1.82,6.49,18,15.91,34.94,27.78,49.95-21.25,4.46-43.68,3.13-64.25-3.8-2.47,15.62-16.66,28.58-32.44,29.65-15.78,1.06-31.57-9.88-36.12-25.03-19.21,3.92-38.42,7.85-57.62,11.77,5.7-16.3,11.39-32.59,17.09-48.89-14.69,1.92-29.82.44-43.86-4.28,11.41-11.85,19.59-26.77,23.46-42.76-17.78,1.46-35.79.12-53.15-3.97,13.04-14.87,22.02-33.26,25.73-52.68-17.44,1.5-34.89,3-52.33,4.5,7.83-8.43,14.02-18.38,18.13-29.12-12.02-8.32-24.04-16.63-36.06-24.95-3.28,19.83-2.76,40.28,1.52,59.92-13.11-4.55-26.21-9.09-39.32-13.64-9.66,23.53-19.32,47.06-28.97,70.59-11.18-10.82-22.36-21.64-33.54-32.46-9.72,16.65-16.97,34.73-21.45,53.48-9.17-22.28-32.25-38.1-56.34-38.62-10.55-.23-23.06,1.47-29.8-6.64-4.3-5.17-4.41-12.48-5.39-19.14-3.76-25.43-24.68-47.41-49.9-52.41,14.45-8.6,28.9-17.2,43.35-25.8-8.78-10.5-17.55-21.01-26.33-31.51,16.7-2.04,32.97-7.53,47.51-16-11.25-13.36-22.51-26.72-33.76-40.08,19.67-2.85,38.71-9.97,55.42-20.72-12.99-8.23-25.97-16.47-38.96-24.7,42.37-37.28,103.29-52.32,158.14-39.03,12.91,3.13,26.18,7.75,39.16,4.94,9.6-2.08,17.83-8,26.06-13.38,98.07-64.09,236.1-59.64,329.83,10.65-35.66-69.84-67.8-142.44-82.25-219.52s-10.11-159.55,24.6-229.87c30.04-60.87,80.38-108.74,125.04-159.86,43.34-49.61,82.14-103.38,129.57-149.09,76.56-73.77,174.24-124.42,277.58-149.4,54.78-13.24,112.27-19.43,167.51-8.24s108.16,41.36,138.5,88.86c-42.81-48.45-106.56-75.49-170.93-81.56-64.36-6.08-129.37,7.41-189.95,29.99-139.23,51.9-259.37,153.41-333.79,282.02,52.39-7.14,109.05,11.39,142.54,52.3s39.5,104.04,9.45,147.54c-30.06,43.51-96.09,59.34-139.89,29.71-28.53-19.3-44.43-53.37-48.94-87.52s1.01-68.77,7.61-102.58c-72.03,36.89-110.94,116.37-121.92,197.99Zm-129.49,466c-.49-3.16-.15-3.09-2.7-2.54-1.02.22-2.09.29-3.09.61-5.89,1.88-11.84,3.35-17.67,5.45-10.54,3.79-21.15,6.75-30.92,12.52-16,9.45-24.11,21.35-26.31,39.87-1.73,14.57-5.05,28.06-12.16,41.22-1.72,3.18-3.74,6.7-5.5,9.93,1.51-.34,3.38-.65,4.81-1.12,3.25-1.05,6.28-2.15,9.46-3.23,14.22-4.83,96.22-23.96,84.1-102.71Zm218.94,1573.11c-.23-.02.02.12-.1.14-3.68-4.5-7.5-8.94-11.16-13.47-1.41-1.75-2.58-3.7-3.97-5.46-.22-.28-.5-.51-.75-.76-2.07-2.12-4.28-4.29-6.15-6.55-4.25-5.13-8.9-9.14-14.39-12.99-.99-.69-2.05-1.03-2.7.38-.1.23-.53.24-.57.55-.41-1.27-.79-2.51-1.18-3.77-.96-.39-1.85-.79-2.82-1.17-.42-.17-.86-.19-1.35-.26-.49-.07-1.27.68-1.74.37-.77-.51-1.78-2.31-2.69-2.63-3.2-1.14-6.33-2.48-9.57-2.82-8.08-.87-15.13-1.9-22.73.82-10.24,3.67-18.72,9.38-27.51,15.6-1.93,1.37-3.63,3.37-5.41,4.98-2.01.71-2.56,2.37-3.42,4.18-.02.05-.08.07-.19.19s-.38.5-.55.63c-1.51-1.45-2.86-.43-4.53.09-.95.29-1.77.7-2.43,1.34-6.49,6.26-12.84,12.57-19.2,18.98-.97.97-1.7,2.26-2.45,3.45-1.73,2.74-3.54,5.26-5.24,8.07-4.36,7.23-7.15,14.4-8.6,22.86-.8,4.65-.63,9,2.98,12.58.28.28.7.65.78.96.06.23-.53.44-.58.66-.6-.58-1.07-1.37-1.68-1.88-.25-.21-.69-.02-.98-.14-1.98,2.75-1.88,5.87-1.59,8.97.17,1.8.96,1.24,2.05,2-1.23,1.72-3.29,1.61-3.11,4.24.5,7.29,1.14,14.78,2.7,22.06,1.86,8.7,5.05,16.97,8.62,25.14.96,2.19,1.42,4.63,2.55,6.72,3.18,5.91,6.99,11.24,11.09,16.53.23.3.41.63.6.95.71,1.19,1.47,2.43,2.12,3.62.12.22-.35.54-.21.68.14.14.65.02.86.11,7.17,8.23,14.33,16.43,21.46,24.72.6.69.85,1.8,1.3,2.58.91,1.59,2.12,1.63,3.8,1.46,1.02.94,2.27,1.98,3.03,3.1,1.45,2.14,3.65,3.35,5.63,4.69,4.59,3.12,9.28,5.35,14.02,8.1,3.83,2.22,7.35,4.38,11.84,5.06.81.12,1.57.62,2.35.9,3.72,1.32,7.43,2.96,11.26,3.94,7.86,2.01,15.89,3.24,23.92,4.02,7.31.71,13.7-.86,20.55-3.14.65-.55,1.31-1.06,1.96-1.6,1.95.87,3.26.62,4.7-.94.37-.41.93-.61,1.33-.99,1.41.3,2.82.58,4.23.88,1.75-.95,3.5-1.89,5.25-2.84-.28-.39-.57-.79-.84-1.18,1.15-.69,2.44-1.21,3.48-2.06,1.84-1.52,3.78-2.91,5.31-4.75,6.99-8.43,12.19-17.54,16.98-27.37,1.85-3.8,2.28-8.18,3.35-12.3.46-1.78.52-3.48-.53-5.11.39-.49.64-.86,1.07-1.36.43-.5,1.36-1,1.71-1.55.14-.22.08-.68-.04-.95-.31-.68-1.03-1.36-1.41-2.02.32-.84,1.17-1.5,1.39-2.38.29-1.19.29-2.48.52-3.73,1.93-10.78,3.07-21.53,2.78-32.47-.22-8.48-1.66-16.68-3.03-25.03-1.15-6.99-2.94-13.57-5.33-20.32-2.4-6.75-4.01-13.57-8.82-19.21-.17-.2-.24-.5-.34-.76-.85-2.32-2.08-3.61-4.68-3.64.01-.27-.18-.47-.04-.77.14-.31.54-.62.71-1.01.17-.39.22-1.03.37-1.47-3.25-4.27-5.73-8.15-11.13-9.76-.1-.03-.28-.21-.23-.33.21-.52.6-1.09.86-1.62-.99-1.27-1.94-2.67-2.85-3.97-.2-.28-.5-.74-.73-.76Zm271.03-522.93c-.73.66-2.03.7-2.87,1.25-3.66-1.1-5.16-2.43-5.22-6.27-.02-1.5.28-2.93.46-4.39,2.48-20.82,6.11-41.81,3.07-62.78-1.31-9.05-3.82-17.89-6.62-26.6-5.18-16.08-11.55-32.06-21.83-45.48-1.67-2.18-3.5-4.34-5.9-5.68-5.1-2.86-12.37-2.32-18.05-3.13-7.37-1.05-14.76-1.81-22.09-3.13-28.84-5.2-60.92-5.88-89.27,2.45-7.02,2.06-13.86,4.7-20.67,7.37-11.97,4.69-23.99,9.51-34.83,16.43-16.56,10.57-29.88,25.77-39.73,42.78-5.99,10.36-10.74,21.39-14.55,32.73-1.9,5.67-3.61,11.43-5.05,17.24-.54,2.16-4.38,15.17-3.34,16.18,1.62,1.57,4.28.29,6.15-.98,20.9-14.23,46.46-21.06,71.66-20.24,12.75.41,25.44,2.78,37.43,7.16,4.65,1.7,12.09,3.46,16.02,6.23,6.09,4.29-.28,8.51-5.24,9.29-13.08,2.05-26.18,4.91-38.09,10.69s-22.62,14.76-28.48,26.63c3.98-.8,7.96-1.59,11.95-2.39,6.43-1.28,12.88-2.57,19.43-2.89,19.44-.94,39.13,7.25,52.17,21.69,4.04,4.48,6.5,9.85-1.34,10.59-20.68,1.95-43.87-1.51-63.63,5.71-9.57,3.5-17.92,9.73-25.43,16.62-5.83,5.35-11.26,11.2-15.59,17.82-10.28,15.74-12.56,34.17-10.44,52.47,13.86-8.39,30.2-12.07,46.3-9.74,4.97.72,10.41,2.39,12.82,6.79,1.35,2.47,1.51,5.39,1.64,8.2.26,5.73.51,11.45.75,17.18.41,9.56.75,19.41-2.53,28.4-2.9,7.93-8.41,14.59-13.89,21.02-5.06,5.93-10.26,11.86-16.37,16.74-6.44,5.15-14.1,8.27-21.14,12.48,4.94,2,10.65,2.49,15.87,4.12,6.41,2,12.94,3.6,19.55,4.79,12.92,2.34,26.12,3.13,39.23,2.43,26.52-1.43,52.76-9.02,75.66-22.52,4.47-2.64,8.92-5.57,12-9.76,1.64-2.23,2.85-4.76,4.6-6.9,1.61-1.97,3.62-3.57,5.5-5.29,5.61-5.15,9.95-11.46,13.85-17.95,2.74-4.56,6.25-13.73,13.33-10.67,2.16.94,3.84,2.7,5.44,4.43,9.55,10.36,18.64,21.4,24.58,34.17,2.85,6.12,4.92,12.64,5.9,19.33,1.06,7.24-1.12,13.8-.84,20.76.43,10.52,11.48-2.82,14.85-5.71,9.33-8.01,18.12-16.67,26.27-25.88,6.86-7.75,13.29-15.94,18.3-24.99,3.58-6.48,6.4-13.34,9.06-20.25,4.47-11.57,8.52-23.4,10.74-35.63s1.17-24.04.58-36.43c-.34-7.16,4.42-8.93,10.42-5.97,11.79,5.82,21.07,15.68,29.21,26,2.38,3.02,4.71,6.14,6.23,9.68,1.18,2.76,1.83,5.72,2.48,8.66,0,13.19,8.79,25.5,6.15,38.98-.23,1.18-.07,2.75-.02,3.99.24-.16.91-.63,1.04-.82,12.94-19.09,22.78-38.69,22.22-62.42-.23-9.68-2.05-19.23-4.5-28.57-1.65-6.31-8.42-18.55-5.82-24.87.21-.5.61-.99,1.09-1.27,3.49-2.04,11.2-7.78,15.16-4.07.68.64,1.13,1.48,1.73,2.2,1.62,1.93,4.17,2.76,6.58,3.49,4.48,1.36,19.47,9.85,21.23,10.97,3.42-16.61-1.58-32.84-1.58-49.37-1.64-16.72-4.32-33.34-8.04-49.73-3.56-15.68-8.09-31.21-14.84-45.81-4.65-10.06-10.31-19.61-16.23-28.98-9.21-14.57-19.19-28.87-32.07-40.33-16.83-14.98-38.11-24.18-60.18-28.08-11.17-1.97-22.58-2.62-33.91-2.04-2.24.11-32.2,4.1-30.94,6.28,4.45,7.72,8.67,15.58,12.66,23.54,4.02,8.03,7.82,16.19,10.63,24.72,10.73,32.46,2.75,104.04-.86,107.31Zm-483.16-805.74c.06-1.69-.08-3.5-.15-5.21-.02-.39-.35-.71-.41-1.1-1.37-9.01-3-17.92-5.18-26.8-7.76,2.79-12.45,5.98-13.79,14.51-1.75,11.13-4.94,21.06-11.37,30.63-.42.63-.84,1.83-1.15,2.58.92-.23,2.37-.54,3.18-.88,8.87-3.7,17.55-7.3,26.32-11.08.78-.34,1.43-1.12,1.98-1.74.22-.25.55-.57.56-.92Zm966.96,63.18c.04.14-.21.2-.12.38.09.18.44.28.53.51.92,2.29,2.44,3.56,4.68,4.51,7.93,3.36,14.95,7.29,22.33,11.87,2.28,1.41,4.38,2.92,5.64,5.73.51,1.13,2.61,2.64,3.7,3.5-.4-3.95-.89-7.99-1.28-11.96-.02-.16.27-.14.21-.34s-.28-.4-.35-.64c-2.09-6.88-4.05-13.89-6.17-20.75-.09-.3-.3-.63-.56-.72-1.1-.39-2.33-.75-3.52-.86-8.08-.72-16.09-1.33-24.21-1.94-1.23-.09-2.72.12-3.99.17,1.02,3.51,2.1,7.03,3.11,10.53Zm39.07-123.35c-2.53.96-4.98,2.2-7.51,3.14-1.76.66-3.6,1.28-5.36,1.85-3.35,1.08-6.62,2.23-9.98,3.18-.91.25-1.87.18-2.81.03-6.36-1.02-10.9,1.04-15.11,5.86-2.35,2.69-4.25,6.09-6.3,9.02,2.6-.07,6.54-.48,8.88-.16,8.01,1.09,15.38,2.65,22.94,4.58,4.91,1.25,8.84,1.23,13.54-.44.67-.24,1.14-.5,1.8-.73,3.01-7.02,6.46-13.84,9.36-20.91,1.25-3.06,2.07-6.26,3.09-9.39-2.64-.69-4.42.09-6.37,1.86-2.04.74-4.13,1.35-6.16,2.12Zm-917.58,13.01c-1.13-.5-2.31-1.66-3.1.25-.09,3.81-.11,7.67-.18,11.49,0,.32-.13.64-.12.97.06,2.89.23,5.81.27,8.69,0,.41-.44.76-.42,1.17.31,5.66.62,11.65.85,17.23.13,3.18,1.76,4.89,4.59,5.76,8.5,2.61,16.62,4.84,25.3,7.04,2.53.64,5.98.23,8.67.28-.93-1.62-2.22-3.85-3.17-5.33-6.98-10.84-13.17-21.5-18.27-33.24-3.02-6.96-7.31-11.17-14.42-14.3Zm-382.7-42.21c-.65,3.21.12,6.16,1.88,8.84,4.58,6.99,9.19,13.43,13.99,20.32,1.28,1.84,3.16,4.13,4.58,5.97.26-1.39.55-3.45.76-4.74.79-4.98,1.24-9.7,2.1-14.56,1.44-8.11,4.98-15.07,8.44-22.53,2.65-5.72,4.14-11.23,3.29-17.57-.05-.38-.28-.72-.42-1.09-.62-1.67-1-3.36-1.86-4.96s-2.25-1.7-3.69-.6c-.83.63-1.48,1.49-2.21,2.24-7.21,7.46-14.46,14.91-21.63,22.4-1.65,1.72-3.2,3.56-4.73,5.38-.22.26-.44.58-.51.9Zm233.82,57.11c2.28,1.3,4.16,1.02,6.47-.07,2.92-.44,5.86-.74,8.76-1.29,2.17-.41,4.31-.84,6.41-1.55,14.54-4.88,26.68-12.39,38.69-21.76.69-.54,1.21-1.39,1.81-2.04-.35-.65-.63-1.49-1.1-2.03-5.73-6.62-10.91-13.4-15.19-20.99-1.31-2.31-2.53-2.31-4.86-1.01s-4.83,3.15-7.39,4.24c-6.53,2.78-10.06,7.25-12.78,13.56-2.06,4.78-3.86,9.31-6.31,13.88-3.4,6.34-7.15,11.94-12.74,16.67-.74.63-1.23,1.6-1.78,2.4Zm1014.15,100.45c-.84-3.15-1.7-6.35-2.63-9.47-.12-.39-.63-.53-.79-.9-1.36-4.66-4.3-8.52-6.96-12.45-3.02-4.46-4.62-4.25-9.69-2-5.07,2.25-10.59,5.69-16.42,7.19-3.52.9-6.88,2.75-9.79,5.03,2.47,6.36,4.91,12.66,7.46,19.03.3.75,1.15,1.33,1.81,1.9,4.77,4.11,10.18,7.69,15.81,10.45,7.82,3.83,14.18,8.67,19.71,15.31,1.18,1.42,2.14,2.76,3.92,3.52,1.79-12.5.4-24.16-2.5-36.39-.06-.4.17-.83.07-1.22Zm-1154.42-199.46c.17-.37.4-.76.41-1.16.04-1.4.07-2.91-.05-4.3-.03-.41-.25-.83-.5-1.16-1.13-1.47-2.29-3-3.64-4.32-6.9-6.73-13.86-13.17-19.42-21.09-.58-.82-1.19-1.71-1.81-2.52-.51.16-1.46.34-1.8.71-4.69,5.17-10.13,8.8-16.01,12.43-.9.56-1.7,1.29-2.46,1.98-2.35,2.11-3.25,4.45-2.48,7.54,2.72,10.83,4.97,21.65,8.02,32.42,2.88,10.18,8.84,18.11,15.21,26.58,1.9,2.53,4.42,5.46,6.44,8,.31-1.65.74-3.94.93-5.5.62-4.99.52-9.83,1.89-14.56,3.11-10.77,6.96-20.74,12.81-30.33.93-1.52,1.74-3.12,2.47-4.72Zm1129.39,44.62c-1.87.41-4.01.65-5.97,1.09-1.96.44-4,1.05-5.97,1.52-2.96-.24-5.19.34-7.42,2.33-2.58,1.47-2.1,4.16-2.38,6.51-1.16,9.57-3.12,18.21-7.05,26.86-1.73,3.81-.97,5.3,3.48,5.99,7.34,1.15,14.6,3.28,21.48,6.93,2.45,1.3,6.42.5,8.28-1.5,5.91-6.35,11.34-12.53,17.33-18.67,4.15-4.25,7.51-9.01,10.21-14.27,3.8-7.42,6.71-14.91,10.09-22.61.57-1.3,1.48-2.73.18-4.1-2.01.48-3.71,1.01-5.82,1.5-2.1.49-4.49.82-6.71,1.35-2.22.53-4.59,1.37-6.84,1.9-2.25.54-4.49.83-6.75,1.36-1.73.4-3.28.99-5.1,1.4-1.81.42-4.05.71-5.89,1.11-1.84.4-3.25.89-5.13,1.3Zm-839.58-18.78c-2.68-1.03-4.85-1.1-7.39.33-1.37,6.88-2.77,13.75-4.13,20.63-.06.32-.13.64-.13.97.02,2.05.15,4.13.18,6.17,0,.14-.33.14-.24.32s.23.43.44.62c1.51,1.37,2.61,2.52,4.32,3.87,1.71,1.36,3.8,2.86,5.74,4.21,3.87,2.7,7.59,5.73,11.77,8.1,5.9,3.35,12.11,5.62,18.83,6.7,4.67.75,8.91,1.53,13.28,3.38,3.01,1.28,6.28,1.66,9.46,2.63,2.4.73,4.35,1.22,6.59-.37,0-.24.1-.61-.02-.85-8.49-17.43-18.46-33.96-26.45-51.69-.44-.97-1.88-1.97-3-2.09-9.78-1.1-19.49-1.98-29.26-2.93Zm-385.95-30.59c-.6.06-1.28.15-1.81.14-9.3-.06-13.93-4.51-14.99-13.25-.46-3.79-.58-6.29-1.2-9.84-.41-2.33-1.02-4.72-1.61-7.04-2.21,1.7-5.01,3.96-7.08,5.66-4.47,3.65-9.6,8.2-13.47,11.91-6.62,6.35-11.05,18.85-12.54,25.6-3.38,15.25-2.35,21.08-.83,35.07.26,2.35,1.52,3.55,4.23,3.3,1.66-.16,3.61-.5,5.23-1.21,7.16-3.14,14.45-6.28,21.64-9.29,8.53-3.57,15.93-8.39,22.46-14.8,8.22-8.06,13.5-17.77,19.66-27.35.12-.19-.07-.92-.12-1.16-3.66.41-7.32.9-10.98,1.32-2.86.33-5.74.63-8.58.94Zm311.6,105.2c-.01.4-.35.74-.38,1.13-.08,1.13-.08,2.26-.13,3.39-.02.33-.13.64-.13.97-.06,9.08,1.41,17.12,5.38,25.35.51,1.07.73,2.23,1.12,3.36,3.24,9.49,8.48,16.54,16.27,22.9,2.71,2.21,5.3,4.34,7.99,6.55,1.34,1.1,2.83,2.05,4.24,3.07,2.92-3.22,5.76-6.62,7.53-10.55,2-4.43,3.85-8.76,6.08-12.98,4.61-8.7,6.58-17.55,7.34-27.23.44-5.58,0-10.96,0-16.51,0-.33-.12-.62-.18-.96-1.32-7.21-2.92-13.93-6.47-20.43-1.17,1.45-2.6,3.29-3.62,4.75-3.61,5.18-7.67,9.53-12.39,13.62-2.13,1.84-4.46,2.89-7.29,2.95-3.76.08-6.8-1.8-10.24-3.07-5.59-2.06-8.99-5.07-11.57-10.56-.57-1.22-1.39-2.61-3.22-2.52-.14,5.54-.2,11.18-.36,16.75Zm-315.57-154.43c-.06.38-.35.72-.35,1.11-.06,2.67-.1,5.35-.05,8.02.16,8.63.38,17.27.58,25.87,3.25,1.48,6.03.83,9.3.02,2.78-.69,5.6-.65,8.36-1.33,6.84-1.69,13.41-3.53,19.27-7.48,6.88-4.63,13.66-9.5,20.44-14.15,5.22-3.58,7.03-8.03,5.88-14.02-1.15-5.99-2.49-11.58-3.8-17.41s-3.01-11.45-4.47-17.24c-3.15.64-6.44,1.15-9.54,1.84-11.77,2.62-23.01,5.33-35.15,6.05-3.52.21-6.41,2.77-7.05,6.27-1.37,7.5-2.23,14.96-3.41,22.45Zm215.43,99.76c-.5,1.28-1.3,2.5-1.92,3.73,1.02.27,2.12.86,3.17.8,4.18-.27,8.29-.66,12.42-1.12,1.35-.15,2.73-.24,4.01-.67,6.93-2.33,13.85-4.3,20.95-6.07,8.75-2.18,16.67-6.02,24.06-11.06,10.49-7.15,17.67-16.77,25.4-26.56,1.12-1.42,1.76-3.13,2.7-4.64,19.88-31.61,10.73-69.17,7.88-71.61-.68,1.53-81,72-98.68,117.2Zm121.76-87.23c-.17,2.47-.3,4.55-.43,7.15-.13,2.59-.54,5.67-.26,8.39.2,1.91.78,4.2,2.12,5.59,6.2,6.48,12.18,12.82,19.89,17.5,12.27,7.45,25.56,11.39,39.41,14.93,1.71.44,3.47.87,5.21.82,9.65-.28,19.16-.47,28.65-2.3,7.05-1.36,13.76-3.72,20.68-5.73.94-.27,2.04-1.03,2.94-1.49-2.35-1.42-5.06-2.77-7.24-4.34-11.31-8.12-21.6-16.46-30.79-26.9-2.34-2.66-5.08-4.46-8.67-5.29-6.55-1.5-13.12-3.01-19.73-4.47-9.69-2.14-18.8-5.02-27.75-9.44-6.69-3.3-13.09-6.5-18.74-11.61-1.47-1.33-3.65-2.86-5.36-4.06.13,6.68.36,13.42.47,20.11,0,.42-.35.72-.38,1.13Zm853.46,58.96c-1.83-1.34-2.93-.17-4.8.4-3.38,2.28-6.76,4.23-9.93,6.85-8.85,7.3-17.21,14.12-27.68,19.46-5.31,2.71-11.04,5.98-14.05,11.52-.91,1.68-1.73,3.29-2.65,4.92-3.23,5.72-6.08,11.51-9.67,17.06-2.82,4.36-5.78,8.74-9.63,12.35-7.46,7.02-15.63,13.46-23.47,19.98-1.65,1.37-2.57,2.32-1.85,4.4,13.97,3.2,27.97,5.65,42.12,8.09,3.05-1.12,6.81-1.81,9.75-3.02,6.1-2.52,12.41-6.19,17.53-9.84,9.24-6.59,19.08-14.05,24.85-23.29,7.55-12.1,10.37-23.93,12.12-37.55,1.11-8.62.28-16.73-1.21-25.19-.07-.39.26-.78.16-1.16-.45-1.67-1.09-3.33-1.59-5Zm-836.53-153.93c-3.7-1.28-36.19,14.26-40,14,.28.48,10.96,33.14,16,36,5.03,2.86,40.15,20.88,45.26,23.24,7.36,3.39,14.6,6.25,22.13,9.28,4.81,1.93,9.53,3.41,14.83,3.13.95.23,1.94.71,2.92.69,10.57-.22,21.05-.53,31.63-.86.82-.03,1.61-.6,2.43-.76,1.28-.25,2.68-.23,3.99-.41-2.98-3.15-6.09-6.09-9-9.34-30.18-54.97-73.18-74.97-90.18-74.97Zm-214.88,122.62c.02-2.49.24-4.98.17-7.46-.31-10.92-.68-21.83-1.03-32.75-.19-.34-.26-.73-.46-1.05-.55-.87-1.12-1.73-1.73-2.57-5.12-7.01-10.56-13.67-15.3-20.98-3.91-6.03-7.27-12.25-9.11-19.26-2.37-9.03-4.4-18.11-6.82-27.2-.32-1.19-1.05-2.68-1.57-3.85-.79.96-1.83,2.25-2.59,3.16-2.93,3.5-5.65,7.05-8.76,10.28-4.38,4.54-9.18,8.8-13.85,12.91-3.11,2.74-4.53,5.69-4.34,9.68.34,7.19.42,14.26,1.67,21.31,1,5.67,2.57,11.36,5.58,16.26,5.36,8.74,11.2,16.8,17.43,24.92,10.2,13.3,23.19,21.13,38.23,28.38.98.47,2.37.55,3.44.82-.25-3.58-.54-7.18-.79-10.75-.05-.65-.19-1.24-.18-1.86Zm-96.37-130.72c-2.96.28-5.86.26-8.79.25-5.06-.02-10.14-.04-15.15-.66-7.4-.91-14.64-2.56-21.98-3.84-3.52-1.03-6.8-1.12-10.21.31-9.52,3.98-18.76,8.22-28.33,12.09-2.86,1.16-5.84,1.83-8.99,2.4-5.17.95-10.66,1.6-15.89,2.4.54.57,1.49,1.68,2.04,2.09,4.45,3.27,8.72,6.42,13.02,9.72,6.37,4.9,12.75,9.47,20.23,12.56,6.71,2.78,13.71,4.22,20.89,5.17,5.78.76,11.58.97,17.39,1.53,7.93.76,15.51.94,23.19-1.65,13.31-4.49,25.95-9.76,37.23-18.25,9.14-6.88,15.8-15.77,22.99-24.62,1.51-1.86,2.4-3.79,3.38-6.4.98-2.61,2.24-6.06,1.81-9.16-7.7,5.8-16.6,8.73-25.76,11.12-9.16,2.39-17.78,4.05-27.05,4.93Zm8.91-76.59c-4.92-.1-9.74-.25-14.7-.29-.67,0-1.29.6-1.99.8-8.26,2.31-15.54,5.93-22.59,10.74-5.78,3.94-11.16,8.1-16.97,12.03-8.68,5.86-17.59,9.62-27.97,11.98-2.87.65-6.03.45-8.19,3.01,1.21.81,2.38,1.77,3.68,2.49,8.14,4.5,16.12,8.59,25.04,11.53,8.92,2.94,17.74,5.4,27.27,5.43.8.21,1.64.66,2.45.64,8.75-.17,17.41-.42,26.16-.72.97-.03,1.91-.61,2.88-.84,1.99-.46,4.05-.76,6.09-1.13,10.95-1.99,20.83-5.52,30.28-11.34,6.5-4,12.34-8.57,18.6-12.93,2.83-1.98,5.75-4.19,8.58-6.24-5.75-4.08-11.42-8.27-17.8-11.33-13.23-6.34-26.36-11.21-40.83-13.82Zm1079.2,430.16c1.7,3.49,3.41,7.03,6.14,9.77,3.85,3.86,9.23,5.65,14.28,7.7,16.09,6.52,30.62,16.85,42.08,29.89-1.61-1.84,6.73-37.03,4.07-44.82-9.52-27.85-30.95-51.12-57.3-64.23-26.35-13.12-57.25-16.27-86.06-10.24,32.91,13.32,60.6,39.07,76.29,70.91.17.34.33.68.5,1.02Zm-123.07-31.02c5.32,7.46,9,15.35,12.85,23.6.3.64.52,1.32.74,1.84.21.53.15.99.46,1.32,5.76,6.2,10.86,12.14,17.31,17.82,4.36,3.84,9.62,6.12,15.52,7.46,4.73,1.08,9.8,3.17,14.55,4.25,3.61.82,7.8,1.49,10.97,2.87,15.66,6.79,31.14,12.45,41.94,25.82.35-.41,1.29-1.16,1.32-1.67,1.2-16.68-2.41-29.01-9.26-44.2-.07-.13.39-.53.21-.61-.33-.13-1.14-.03-1.56-.11-3.78-6.7-7.53-12.88-12.91-18.54-1.46-1.54-2.93-2.98-4.4-4.74-8.2-9.79-15.1-17.45-26.53-24.76-19.99-12.8-44.12-20.96-67.09-27.15-3.17-.85-5.38-.81-5.1,1.82,1.27,11.87,4.78,21.45,8.94,32.57.17.45,1.55,1.01,1.85,1.33.3.32.02.74.21,1.07ZM233.59,1004.78c0,.14-.28.13-.24.33.04.2.37.38.42.63.7,3.75,1.23,7.57,1.96,11.34,1.17,5.95,2.22,11.94,3.55,17.86,1.33,5.92,3.52,11.25,6.9,16.31,2.49,3.73,5.11,7.32,7.57,11.06,1.81,2.75,3.25,5.69,5.24,8.33,7.9,10.48,16.96,19.03,27.84,26.49,1.18.81,2.56,1.39,3.8,2.09.25-.39.83-1.18.87-1.58.88-8.33,1.64-16.53,2.52-24.8.66-6.2,1.02-12.37,2.35-18.49,1.17-5.4,3.51-10.42,5.38-15.62,1.44-4,2.46-7.91,2.03-12.19-.5-5.02-.89-10.05-1.62-15.05-.49-3.37-2.19-6.08-4.68-8.39-11.12-10.33-22.15-20.68-33.57-30.7-5.16-4.53-11.01-8.22-16.72-12.17-1.24-.86-3.23-1.13-4.7-1.61-1.05,3.67-2.23,7.56-3.18,11.19-1.8,6.85-3.86,13.4-5.09,20.34-.86,4.84-.45,9.77-.65,14.65Zm885.69,250.22c2.63,1.72,6.95.31,14.98-1.06,19.91-3.39,50.04-13.66,65.52-27.22,23.65-20.72,39.03-50.62,42.14-81.9-14.66,12.27-34.48,15.78-53.16,19.85-18.68,4.07-38.49,9.95-50.3,24.99-7.13,9.07-24.7,46.76-22.59,57.8.81,4.21,1.79,6.48,3.41,7.54Zm-817.66-174.94c0,1.13.07,2.29.15,3.43.03.4.4.72.44,1.14.04.42.02.98,0,1.4-.02.43-.42.77-.41,1.18.04,2.63.16,5.29.28,7.92.02.4.42.72.43,1.13.13,4.62.94,8.85,2.82,13.07,2.1.45,2.63-1.08,2.97-2.55,3.05-13.29,5.9-26.02,7.38-39.49.72-6.57,3.9-11.54,8.69-16.05,3.2-3.01,6.49-5.8,9.75-8.72,6.64-5.98,13.23-11.82,21.35-15.75,9.67-4.68,19.66-8.47,29.54-12.68,6.66-2.84,13.46-5.47,20.16-8.24.39-2.64.89-5.35,1-8,.37-8.43,1.95-16.28,4.77-24.22.85-2.4,1.31-4.88,2.16-7.28,2.96-8.37,6.36-16.11,13.52-21.83,17.13-13.7,34.89-21.28,56.79-23.6,2.81-.3,5.62-.26,8.44-.21,5.71.1,11.27.65,16.88,2.01,3.7.9,7.57,1.35,11.42,1.68,6.41.55,12.73,1.17,18.98,2.81,8.62,2.26,17.2,4.51,25.84,6.81,6.42,1.71,12.94,2.84,18.96,5.84,4.56,2.27,9.14,4.6,13.81,6.7.96.43,2.07.58,3.09.84.21-.32.41-.64.61-.97-1.11-1.1-2.1-2.32-3.31-3.31-6.93-5.71-14.07-11.05-20.67-17.16-2.06-1.91-4.45-3.53-6.9-4.97-4.41-2.59-8.88-5.06-13.42-7.42-10.02-5.2-19.99-10.43-30.14-15.37-5.54-2.7-11.32-4.89-17.03-7.25-2.5-1.04-4.99-2.07-7.57-2.93-10.7-3.57-21.48-6.22-32.63-8.08-10.6-1.77-21.19-2.95-31.93-3.5-4.21-1.08-7.92-.99-12.07.34-5.08.07-10.22.39-15.27.36-.86,0-1.65-.69-2.48-.67-6.39.15-12.63.29-19.02.53-.83.03-1.59.68-2.44.81-3.64.57-7.42.67-11.05,1.5-4.64,1.06-9.15,2.5-13.69,3.9-6.86,2.11-13.69,4.28-20.52,6.45-5.84,1.86-11.78,3.44-17.49,5.67-4.03,1.57-7.61,4.21-11.63,5.74-7.43,2.82-14.39,6.16-20.9,10.62-12.71,8.72-25.11,17.49-37.77,26.4-.55.39-1.44,1.76-1.87,2.41.67.32,1.64.54,2.21,1.01,11.95,9.64,23.77,19.2,35.7,28.87,5.04,4.08,9.83,8.21,13.46,13.67,1.64,2.46,3.58,4.77,5.45,7.1,2.83,3.54,5.28,7.14,6.89,11.44,4.55,12.14,4.75,22.88-.38,34.9-2.77,6.48-5.93,12.69-8.21,19.35-1.69,4.92-2.76,9.96-3.86,15.04-.5,2.3-.55,4.68-.82,7.01-.05.41-.43.76-.43,1.17Zm365.01-613.81c.11.52.37,1.23.33,1.86-.29,3.93.8,7.42,2,11.13,2.45,7.53,3.63,15.3,6.19,22.81,3.32,9.73,7.44,18.8,14.07,26.88,8.23,10.02,18.1,16.81,30.47,21.06,5.36,1.84,10.8,3.54,16.52,3.63,11.47.18,23.04-.61,34.57-.7.97,0,1.9-.68,2.9-.82,5.6-.79,10.77-2.38,15.88-4.84,9.74-4.71,19.08-9.62,27.48-16.53,12.6-10.38,21-22.54,26.68-37.71,2.32-6.18,3.18-12.53,3.94-19.03.84-7.2,1.25-14.4.64-21.63-.03-.36-.42-.63-.48-.99-.8-4.33-1.26-8.72-2.29-13.03-1.65-6.89-3.84-13.48-7.4-19.65-2.36-4.08-5.07-7.91-7.7-11.82-5.2-7.72-10.01-15.59-16.68-22.25-11.92-11.89-25.45-19.73-41.59-24.83-10.02-3.16-20.25-4.18-30.66-5-.8-.19-1.64-.67-2.46-.66-7.62.13-15.12.38-22.76.61-.82.02-1.55.71-2.42.81-3.19.36-6.17.2-9.5.68-3.32.48-6.93,1.33-10.4,1.77-6.25.78-12.38,1.75-18.2,4.35-4.77,2.13-7.26,5.89-7.64,10.97-.09,1.2-.35,2.31-.54,3.42-.57,3.41-1.02,7.17-1.96,10.35-.93,3.19-.39,6.05-.69,9.13-.37,3.78-1.4,7.34-1.51,11.07-.17,5.68.22,11.25.38,16.9,0,.33.16.66.18.97.06,1.39.18,3.01.21,4.33.03,1.32-.09,2.46-.07,3.69.04,3.3.1,6.53.17,9.81,0,.33.17.63.17.96-.09,7.37.39,14.53,1.51,21.85.03.18.62.22.67.45Zm200.52,300.87c-.04-.41-.44-.74-.49-1.15-.41-3.62-1.08-7.18-1.1-10.86-.01-1.89.28-4.01,1.7-5.46,1.42-1.45,3.66-.89,5.22.18,1.56,1.07,1.82,2.7,2.12,4.42.07.4.63.58.77.94.16,3.2.22,6.43.4,9.63.02.41.46.74.48,1.15.13,2.34.19,4.72.26,7.06,0,.14-.29.13-.24.33s.39.38.42.63c.18,1.68.19,3.44.35,5.13.04.41.47.73.48,1.15.18,6.82.32,13.66.43,20.48,0,.4-.36.74-.38,1.13-.07,1.72-.04,3.46-.09,5.18-.01.32-.12.64-.13.97-.03,1.75.05,3.52,0,5.27-.01.4-.37.74-.37,1.13-.07,2.91.08,5.86-.02,8.76-.01.39-.6.59-.66.99-.59,4.31-.8,8.65-1.73,12.94-1.33,6.07-2.51,12.07-5.43,17.65-2,3.84-4.26,7.56-6.4,11.33-3.28,5.77-6.42,11.63-9.8,17.35-5.67,9.6-13.24,17.79-19.71,26.84-3.07,4.29-6.38,8.38-9.54,12.6-5,6.68-9.99,13.32-14.83,20.15-.96,1.35-1.24,3.2-1.78,4.75-.13.37-.47.75-.49,1.12-.05,1-.04,2.39.04,3.28.08.89.45,1.25.57,2.04,4.12,4.74,8.08,9.67,12.34,14.29,3.73,4.03,7.72,7.86,11.6,11.74,2.88,2.89,6.16,5.25,9.73,7.2,5.09,2.77,10.13,5.32,15.27,7.98,6.75,3.5,13.67,6.43,21.06,8.43,5.52,1.49,10.99,3.21,16.76,3.3,8.97.13,17.92-.44,26.89-.63,1.05-.02,2.13-.04,3.14-.31,4.69-1.22,9.38-2.27,13.99-3.8,7.39-2.46,14.64-4.9,21.12-9.3,10.04-6.82,19.89-13.93,29.87-20.85,1.45-1.01,2.87-2.07,4.1-3.35,4.86-5.07,8.89-10.43,11.81-16.81,3.32-7.25,7.42-14.02,9.94-21.62,2.89-8.73,5.33-17.64,7.26-26.64.85-3.96,1.15-8.04,1.79-12.03.06-.38.47-.67.46-1.05-.09-5.32-.25-10.64-.43-15.98-.01-.37-.44-.55-.49-1.02-.2-2.1-.04-3.57-2.38-4.43-1.46,1.75-2.58,3.75-4.3,5.29-4.2,3.77-8.9,6.58-14.16,8.61-12.59,4.86-24.39,9.71-37.05,14.87-5.18,2.11-10.68,3.77-16.35,1.4-.3-1.64-1.17-3.53-.68-5.17,1.02-3.37,2.67-6.35,4.3-9.39,3.85-7.16,8.3-13.93,11.83-21.25,4.65-9.65,8.47-19.5,11.72-29.71,5.27-16.57,8.87-33.13,10.16-50.48.08-.11.31-.06.33-.26.02-.2-.18-.45-.19-.7-.39-9.68-.58-19.35-1.17-29.05-.22-3.62-1.2-7.16-1.86-10.76-.4-2.21-.88-4.57-1.32-6.79-.41.16-1.29.45-1.55.73-4.07,4.4-8,8.98-12.04,13.26-4.05,4.29-7.57,8.58-12.18,12.31-2.41,1.94-5.74,2.85-8.83,3.33-3.09.48-4.06-2.52-6.07-4.19-.36-.3-.71-.58-1-.93-3.23-3.95-6.89-7.62-9.61-11.93-4.5-7.12-8.39-14.48-12.36-21.88-1.35-2.52-2.45-5.22-3.04-7.99-1.33-6.27-2.29-12.59-3.26-18.89-.56-3.61-.72-7.37-1.26-10.9s-1.43-6.31-1.96-9.89c-.53-3.58-1.53-7.53-1.04-11.3.82-6.4,2.59-12.36,5.64-18.1,1.56-2.94,3.22-5.89,4.28-9.02,2.87-8.43,7.55-15.21,13.39-21.83,3.39-3.84,7-7.25,10.49-10.95-1.65-.2-3.51,0-5,.57-7.56,2.91-15.03,5.67-22.45,8.76-9.03,3.76-18.1,7.37-26.91,11.59-6.37,3.05-12.09,7.18-17.71,11.37-7.01,5.22-12.81,11.42-18.19,18.19-6.06,7.62-11.54,15.45-17.29,23.3-4.41,6.03-8.7,11.94-11.47,18.95-.84,2.14-2.18,4.1-3.06,6.25-2.01,4.96-3.77,9.94-4.62,15.23-.85,5.29-1.97,10.48-3.09,15.72-.63,2.97-1.06,5.95-1.73,8.93-.92,4.11-1.32,8.17-2.49,12.3-1.37,4.81-5.85,5.71-9.85,2.95-.43-.29-.79-.76-1.26-.91-4.92-1.59-8.72-4.14-12.28-7.78-5.07-5.18-10.2-9.89-15.19-15.24-2.48-2.66-4.35-5.63-5.09-9.36-.52-2.63-1.58-5.4-2.51-7.96-.21.06-.92.33-.98.52-2.33,7.91-4.67,15.73-6.82,23.65-.79,2.91-1.43,5.91-1.51,8.91-.19,7.03.07,14.01.11,21.02-.05.11-.27.1-.25.28s.38.34.4.58c.15,1.9.28,3.86.34,5.78.3,8.77.59,17.62.85,26.35.02.62-.06,1.45-.08,1.82-.02.37-.13.36-.08.48,3.55,9.8,7.24,19.3,10.77,29.1,1.29,3.59.68,6.41-2.43,8.82-2.29-.1-4.45.3-6.74.11-22.28-1.88-36.03-10.54-46.86-29.89-.55,1.3-1.09,2.86-1.32,4.2-.9,5.1-1.7,10.07-2.97,15.04-.96,3.77-.25,7.37-1.4,11.18-.85,2.79-.66,6-.73,8.96-.01.61.12,1.25.14,1.87.09,2.64.18,5.31.28,7.95.02.63-.17,1.28-.06,1.9.29,1.66.73,3.33.93,5,.61,5.08,2.08,9.89,3.76,14.7,2.67,7.67,6.5,14.57,10.79,21.45,1.01,1.62,2.27,3.15,3.75,4.34,6.04,4.87,12.04,9.72,18.02,14.64,8.66,7.13,18.13,10.86,29.11,13.06,5.06,1.01,10.13.5,15.23.8,2.75.95,4.99,1.06,7.58-.4,2.06-2.9,4.14-5.8,6.18-8.72,6.31-9.03,12.12-18.41,19-27.04,8.21-10.31,17.25-19.9,25.88-29.85,2.14-2.47,4.36-4.97,5.89-7.82,4.01-7.45,7.63-14.98,11.29-22.58.96-2,1.64-4.15,2.07-6.31,1.91-9.51,3.77-19,5.42-28.55.88-5.09,1.27-10.24,1.91-15.35.05-.38.46-.67.46-1.05,0-2.32,0-4.71-.1-7.02-.02-.4-.48-.68-.56-1.06-.62-6.79-1.16-13.6-1.79-20.39Zm-426.4,370.97c-1.9,3.05-3.82,6.63-5.94,9.43-3.07,4.04-6.41,7.56-9.52,11.39-4.14,5.1-8.43,10.26-12.32,15.38-2.24,2.95-2.04,4.58-.16,7.54.93,1.47,1.89,2.98,2.78,4.56,4.12,7.32,8.79,13.45,14.71,19.64,5.92,6.19,11.74,13.12,17.47,19.7.93,1.07,2.27,2.3,3.31,3.35,2.26-3.2,4.91-6.5,7.08-9.72,10.8-16.05,16.59-32.78,18.53-51.64.62-6.04-.88-6.59-5.68-9.18-.46-.25-1.09-.46-1.66-.68-6.96-2.65-12.85-6.08-18.23-11.27-1.53-1.48-2.92-2.9-4.66-4.29-1.74-1.4-3.84-2.88-5.7-4.21Zm870.63,169c21.26,1.92,60.58-10.74,59.12-28.86-1.23-14.79-31.18-23.39-42.26-27.22-17.37-6-33.66-.79-46.64,11.71-17.62,16.97,6.53,31.43,19.33,41.15,2.33,1.77,5.99,2.81,10.45,3.22Zm60-4.61c16.32,22.6,82.39,5.63,72.77-23.26-6.64-19.95-57.02-30.96-74.28-23.85,9.88-4.07,17.66,37.69.74,45.97.24.39.5.77.76,1.14ZM99.56,1056.9c-3.54-1.11-7.26-2.31-10.7-3.56-4.09-1.48-8.05-1.82-12.31-2.06-.91-.05-1.87-.07-2.68.25-11.85,4.6-23.51,9.26-35.35,13.93-1.08.42-2.45,1-3.56,1.47.54.53,1.25,1.42,1.85,1.79,4.63,2.78,8.76,5.65,13.65,8.01,4.88,2.36,10.08,4.52,15.38,6.03,5.95,1.7,12.15,2.5,18.14,4.07,3.35.88,6.58.72,9.99.38,2.08-10.08,4.2-20.1,5.57-30.3Zm-79.38,62.3c8.05,3.21,16.71,7.06,24.7,9.97,5.09,1.85,7.84.89,10.9-3.17,4.85-6.46,9.6-13.58,14.08-20.14,2.08-3.05,1.54-4.8-2.04-5.85-5.15-1.5-10.28-1.23-15.24,1.28-9.54,4.84-18.81,10.03-28.38,15.1-1.15.61-2.88,1.98-4.02,2.81Z"/>
    </g>
</svg>