<?xml version="1.0" encoding="UTF-8"?>
<svg id="Layer_2" data-name="Layer 2" xmlns="http://www.w3.org/2000/svg" viewBox="0 0 33 33">
  <defs>
    <style>
      .cls-1 {
        fill: none;
        stroke: #bf0029;
        stroke-linecap: round;
        stroke-linejoin: round;
        stroke-width: 3px;
      }
    </style>
  </defs>
  <g id="Work">
    <g id="Starmaker">
      <path class="cls-1" d="m9,16.5l5,5,10-10m-14.5,20h14c2.8,0,4.2,0,5.27-.54.94-.48,1.71-1.24,2.19-2.19.54-1.07.54-2.47.54-5.27v-14c0-2.8,0-4.2-.54-5.27-.48-.94-1.24-1.71-2.19-2.19-1.07-.54-2.47-.54-5.27-.54h-14c-2.8,0-4.2,0-5.27.54-.94.48-1.71,1.24-2.19,2.19-.54,1.07-.54,2.47-.54,5.27v14c0,2.8,0,4.2.54,5.27.48.94,1.24,1.71,2.19,2.19,1.07.54,2.47.54,5.27.54Z"/>
    </g>
  </g>
</svg>