<?xml version="1.0" encoding="UTF-8"?>
<svg id="Layer_2" data-name="Layer 2" xmlns="http://www.w3.org/2000/svg" viewBox="0 0 352.75 280.69">
  <defs>
    <style>
      .cls-1 {
        fill: #bf0029;
      }
    </style>
  </defs>
  <g id="Home">
    <g id="Logo">
      <path class="cls-1" d="m310.09,236.96c0,30.83,2.51,41.58,40.51,41.58h2.15v2.15h-159.88v-2.15h2.15c27.6,0,32.98-9.68,32.98-41.58V40.15l-63.81,240.54h-43.74L48.4,37.64v175.66c0,46.6,6.81,65.24,41.23,65.24h3.94v2.15H0v-2.15h3.58c34.41,0,41.94-18.64,41.94-65.24V43.73C45.53,12.91,43.73,2.15,5.74,2.15h-2.87V0h124.39l55.92,198.6L236.24,0h116.51v2.15h-2.15c-38,0-40.51,10.75-40.51,41.58v193.22Z"/>
    </g>
  </g>
</svg>