<?xml version="1.0" encoding="UTF-8"?>
<svg id="Layer_2" data-name="Layer 2" xmlns="http://www.w3.org/2000/svg" viewBox="0 0 30 30">
  <defs>
    <style>
      .cls-1 {
        fill: #583e40;
      }
    </style>
  </defs>
  <g id="About">
    <g id="Contact">
      <g id="Social_Media_Icons" data-name="Social Media Icons">
        <path id="insta" class="cls-1" d="m15.01,2.7c4.01,0,4.49.02,6.06.09,1.47.06,2.26.31,2.78.52.7.27,1.2.6,1.72,1.12.53.53.85,1.03,1.12,1.72.21.53.45,1.32.52,2.78.07,1.58.09,2.06.09,6.06s-.02,4.48-.09,6.06c-.06,1.47-.31,2.26-.52,2.78-.27.7-.6,1.2-1.12,1.72s-1.03.85-1.72,1.12c-.53.21-1.33.45-2.78.52-1.58.07-2.06.09-6.06.09s-4.49-.02-6.06-.09c-1.47-.06-2.26-.31-2.78-.52-.7-.27-1.2-.6-1.72-1.12-.53-.53-.85-1.03-1.12-1.72-.21-.53-.45-1.32-.52-2.78-.07-1.58-.09-2.06-.09-6.06s.02-4.48.09-6.06c.06-1.47.31-2.26.52-2.78.27-.7.6-1.2,1.12-1.72.53-.53,1.03-.85,1.72-1.12.53-.21,1.33-.45,2.78-.52,1.58-.07,2.05-.09,6.06-.09Zm0-2.7c-4.07,0-4.58.02-6.19.09-1.59.07-2.69.33-3.64.7-.99.39-1.83.9-2.66,1.73-.84.83-1.35,1.67-1.74,2.65-.37.96-.63,2.05-.7,3.64-.07,1.61-.09,2.12-.09,6.19s.02,4.58.09,6.18c.07,1.59.33,2.69.7,3.64.39.99.9,1.83,1.74,2.66.83.83,1.67,1.35,2.66,1.73.96.37,2.05.63,3.64.7,1.6.07,2.11.09,6.19.09s4.58-.02,6.19-.09c1.59-.07,2.69-.33,3.64-.7.98-.38,1.82-.9,2.66-1.73.83-.83,1.35-1.67,1.73-2.65.37-.96.63-2.05.7-3.64.07-1.6.09-2.11.09-6.18s-.02-4.58-.09-6.18c-.07-1.59-.33-2.69-.7-3.64-.37-1-.88-1.83-1.72-2.67-.83-.83-1.67-1.35-2.66-1.73-.96-.37-2.05-.63-3.64-.7-1.61-.08-2.12-.09-6.19-.09Zm0,7.3c-4.26,0-7.71,3.45-7.71,7.71s3.45,7.71,7.71,7.71,7.71-3.45,7.71-7.71-3.45-7.71-7.71-7.71Zm0,12.71c-2.76,0-5-2.24-5-5s2.24-5,5-5,5,2.24,5,5-2.24,5-5,5Zm9.81-13.01c0,1-.81,1.8-1.8,1.8s-1.8-.81-1.8-1.8.81-1.8,1.8-1.8,1.8.81,1.8,1.8Z"/>
      </g>
    </g>
  </g>
</svg>