<svg class="icon-github" xmlns="http://www.w3.org/2000/svg" viewBox="0 0 30 30">
  <path fill="#bf0029" d="M27.78 0H2.21C.99 0 0 .97 0 2.16v25.67C0 29.03.99 30 2.21 30h25.56c1.22 0 2.22-.97 2.22-2.16V2.16c0-1.2-1-2.16-2.22-2.16ZM8.9 25.56H4.45V11.24H8.9v14.32ZM6.67 9.29c-1.43 0-2.58-1.15-2.58-2.58s1.15-2.58 2.58-2.58 2.58 1.15 2.58 2.58S8.1 9.29 6.67 9.29Zm18.89 16.27h-4.45V18.6c0-1.66-.03-3.8-2.31-3.8s-2.67 1.81-2.67 3.68v7.08h-4.44V11.24h4.27v1.96h.06c.59-1.13 2.04-2.31 4.21-2.31 4.51 0 5.34 2.96 5.34 6.82v7.86Z" data-name="Social Media Icons"/>
</svg>