<?xml version="1.0" encoding="UTF-8"?>
<svg id="Layer_2" data-name="Layer 2" xmlns="http://www.w3.org/2000/svg" viewBox="0 0 30 30">
  <defs>
    <style>
      .cls-1 {
        fill: #583e40;
      }
    </style>
  </defs>
  <g id="About">
    <g id="Contact">
      <g id="Social_Media_Icons" data-name="Social Media Icons">
        <path id="linkedin" class="cls-1" d="m27.78,0H2.21C.99,0,0,.97,0,2.16v25.67c0,1.2.99,2.17,2.21,2.17h25.56c1.22,0,2.22-.97,2.22-2.16V2.16c0-1.2-1-2.16-2.22-2.16ZM8.9,25.56h-4.45v-14.32h4.45v14.32Zm-2.23-16.27c-1.43,0-2.58-1.15-2.58-2.58s1.15-2.58,2.58-2.58,2.58,1.15,2.58,2.58-1.15,2.58-2.58,2.58Zm18.89,16.27h-4.45v-6.96c0-1.66-.03-3.8-2.31-3.8s-2.67,1.81-2.67,3.68v7.08h-4.44v-14.32h4.27v1.96h.06c.59-1.13,2.04-2.31,4.21-2.31,4.51,0,5.34,2.96,5.34,6.82v7.86Z"/>
      </g>
    </g>
  </g>
</svg>