<?xml version="1.0" encoding="UTF-8"?>
<svg id="Layer_2" data-name="Layer 2" xmlns="http://www.w3.org/2000/svg" viewBox="0 0 1377.36 283.42">
  <defs>
    <style>
      .cls-1 {
        fill: #bf0029;
      }
    </style>
  </defs>
  <g id="Home">
    <g id="Logo">
      <path class="cls-1" d="m1374.86,223.48c-1.08,38-13.26,48.4-18.28,48.4-5.74,0-5.74-10.04-5.74-15.77v-93.56c0-20.43-1.08-41.94-24.74-58.43-15.77-11.11-39.07-15.77-60.94-15.77-44.81,0-82.09,19.72-82.09,49.47,0,21.87,17.21,35.85,34.77,35.85s36.21-13.62,36.21-35.13c0-20.08-17.21-29.75-30.11-29.75-2.87,0-5.74.36-7.89,1.43,7.17-17.57,29.4-18.64,36.92-18.64,13.62,0,25.81,2.87,25.81,37.64,0,21.15-2.15,45.89-49.83,53.77l-8.6,1.43c-24.74,4.3-40.87,6.81-48.75,32.26-1.43,5.02-2.51,10.75-2.51,16.49,0,39.07,31.19,47.68,61.66,47.68,7.89,0,14.34-.36,19.72-2.51,10.04-3.94,20.79-13.62,28.32-37.28,5.74,21.15,11.83,29.4,31.91,37.28,5.38,2.15,11.83,3.23,19,3.23,10.04,0,20.79-2.15,29.04-6.81,16.49-8.6,18.64-42.66,18.64-51.26h-2.51Zm-96.43-25.09c0,27.25-.72,59.15-21.15,72.41-1.79,1.79-4.66,2.51-7.17,2.51-8.96,0-9.68-13.62-10.04-20.79-.72-8.6-1.43-16.13-1.43-24.38,0-5.74.36-11.83,1.43-19,2.51-20.08,4.3-22.58,27.6-39.79,3.58-2.51,9.32-8.6,10.75-17.21v46.24Z"/>
      <path class="cls-1" d="m310.09,237.18c0,30.83,2.51,41.58,40.51,41.58h2.15v2.15h-159.88v-2.15h2.15c27.6,0,32.98-9.68,32.98-41.58V40.37l-63.81,240.54h-43.74L48.4,37.86v175.66c0,46.6,6.81,65.24,41.23,65.24h3.94v2.15H0v-2.15h3.58c34.41,0,41.94-18.64,41.94-65.24V43.95C45.53,13.13,43.73,2.37,5.74,2.37h-2.87V.22h124.39l55.92,198.6L236.24.22h116.51v2.15h-2.15c-38,0-40.51,10.75-40.51,41.58v193.22Zm234.22,20.79c0,5.74,0,15.77,5.74,15.77,5.02,0,17.21-10.4,18.28-48.4h2.51c0,8.6-2.15,42.66-18.64,51.26-8.24,4.66-19,6.81-29.04,6.81-7.17,0-13.62-1.08-19-3.23-20.08-7.89-26.17-16.13-31.9-37.28-7.53,23.66-18.28,33.34-28.32,37.28-5.38,2.15-11.83,2.51-19.72,2.51-30.47,0-61.66-8.6-61.66-47.68,0-5.74,1.08-11.47,2.51-16.49,7.89-25.45,24.02-27.96,48.75-32.26l8.6-1.43c47.68-7.89,49.83-32.62,49.83-53.77,0-34.77-12.19-37.64-25.81-37.64-7.53,0-29.75,1.08-36.92,18.64,2.15-1.08,5.02-1.43,7.89-1.43,12.91,0,30.11,9.68,30.11,29.75,0,21.51-18.64,35.13-36.21,35.13s-34.77-13.98-34.77-35.85c0-29.75,37.28-49.47,82.09-49.47,21.87,0,45.17,4.66,60.94,15.77,23.66,16.49,24.74,38,24.74,58.43v93.56Zm-110.77-46.96c-1.08,7.17-1.43,13.26-1.43,19,0,8.24.72,15.77,1.43,24.38.36,7.17,1.08,20.79,10.04,20.79,2.51,0,5.38-.72,7.17-2.51,20.43-13.26,21.15-45.17,21.15-72.41v-46.24c-1.43,8.6-7.17,14.7-10.75,17.21-23.3,17.21-25.09,19.72-27.6,39.79Zm353.77-17.14l10.83,19c22.55,39.55,43.21,59.13,71.86,42.79,33.32-19,32.07-65.34,17.56-98.74l2.18-1.24c7.37,17.26,18.41,51.82,1.44,82.13-5.7,10.27-17.54,19.91-30.93,27.54-69.75,39.78-114.9,1.15-132.48-29.68-12.79-22.42-17.88-50.88-8.15-84.49,7.05-23.83,24.22-41.46,42.6-51.94,40.48-23.09,71.73-9.54,94.08,8.66,10.44,8.9,16.79,19.31,24.43,32.7l-93.42,53.28Zm-6.39-11.21l5.15,9.03,36.43-20.78c-6.3-12.5-15.23-28.87-21.8-40.39-9.41-16.5-16.83-28.78-30.3-31.42-1.96-.54-4.63.57-7.74,2.35-17.75,10.12-8.92,33.56,18.25,81.21Zm125.04-90.3h102.53v31.91c8.96-22.94,30.11-34.06,55.92-34.06,15.06,0,27.6,3.94,37.28,11.47,17.57,13.98,20.43,31.19,20.43,54.13v87.83c0,26.53,2.51,35.13,30.47,35.13v2.15h-117.94v-2.15c14.7,0,15.77-12.19,15.77-35.13v-95.71c0-36.21-6.81-43.02-17.21-43.02-2.15,0-12.91,1.08-18.64,12.55-3.94,7.89-6.09,13.62-6.09,42.66v83.53c0,22.94,1.08,35.13,15.77,35.13v2.15h-118.3v-2.15c27.96,0,30.47-8.6,30.47-35.13v-113.64c0-26.53-2.51-35.13-30.47-35.13v-2.51Z"/>
      <path class="cls-1" d="m717.22,281h-136v-2.2c28.59,0,31.16-8.8,31.16-35.95V37.42c0-27.15-2.57-35.22-31.16-35.22V0h105.21v242.11c0,27.15,2.2,36.68,30.79,36.68v2.2Z"/>
      <g>
        <path class="cls-1" d="m836.56,60.59c3.37,1.34,7.21.22,9.35-2.7.82-1.12,1.77-2.42,2.84-3.88,4.6-6.3,5.69-21.29,4-22.34-2.25-1.41-9.47-.7-15.6,1.69-3.57,1.39-7.83,4.66-10.78,7.15-2.42,2.05-3.39,5.34-2.48,8.38.7,2.3,1.81,4.89,3.56,6.64,1.97,1.97,5.8,3.78,9.09,5.09Z"/>
        <path class="cls-1" d="m854.45,50.42c-1.09,4.74-6.45,12.36-6.45,12.36,0,0,15.04-6.29,19.33-10.57,6.77-6.77,10.15-12.75,10.15-12.75l-21.55.35s-.21,5.13-1.48,10.61Z"/>
        <path class="cls-1" d="m866.14,35.8s3.17.65,9.39-1.61c6.96-2.53,7.59-12.44,7.59-12.44l-12.79,3.39c.57,2.72-4.18,10.65-4.18,10.65Z"/>
        <path class="cls-1" d="m866.46,29.13c-1.42,4.29-4.22,7.38-8.01,6.53-3.32-.74-1.79-9.91-1.79-9.91,0,0-8.96,2.95-10.44,1.48s-1.81-5.14,1.48-7.8c3.4-2.75,18.34-5.9,18.34-5.9,0,0,1.84,11.31.42,15.6Z"/>
        <path class="cls-1" d="m881.23,0s-1.98,5.74-2.17,9.76c-.18,4.02-.93,9.5-1.67,10.52s-7.95,1.09-7.95,1.09c0,0,.7-5.22.97-7.79l.27-2.56s-9.64,1.66-10.17,1.68-3.09-6.54.11-7.44c3.2-.9,20.61-5.26,20.61-5.26Z"/>
        <path class="cls-1" d="m857.46,1.59s-7.16,2.31-8.72,6.04c-1.56,3.73-2.17,9.76-2.17,9.76,0,0,2.88-1.89,4.7-2.43s5.52-1.34,5.52-1.34c0,0-.05.25.27-5.05.32-5.3.41-6.99.41-6.99Z"/>
        <path class="cls-1" d="m845.46,6.61s-14.84,10.92-17.24,15.53c-2.4,4.61-6.77,17.29-6.77,17.29,0,0,4.32-5.45,9.6-7.67,9.02-3.8,12.19-3.22,12.19-3.22,0,0-1.36-2.9-.02-10.61,1.34-7.71,2.23-11.32,2.23-11.32Z"/>
      </g>
    </g>
  </g>
</svg>